<svg width="36" height="36" viewBox="0 0 36 36" fill="none" xmlns="http://www.w3.org/2000/svg">
<rect width="36" height="36" rx="18" fill="#EDF9FF"/>
<g clip-path="url(#clip0_885_19169)">
<path d="M23 17.375C23.7278 17.3745 24.4457 17.5436 25.0967 17.8691C25.7477 18.1946 26.3138 18.6674 26.75 19.25" fill="#0B53CB"/>
<path d="M23 17.375C23.7278 17.3745 24.4457 17.5436 25.0967 17.8691C25.7477 18.1946 26.3138 18.6674 26.75 19.25" stroke="#0B53CB" stroke-width="1.5" stroke-linecap="round" stroke-linejoin="round"/>
<path d="M9.25 19.25C9.68625 18.6674 10.2523 18.1946 10.9033 17.8691C11.5543 17.5436 12.2722 17.3745 13 17.375" stroke="#0B53CB" stroke-width="1.5" stroke-linecap="round" stroke-linejoin="round"/>
<path d="M18 22.375C19.7259 22.375 21.125 20.9759 21.125 19.25C21.125 17.5241 19.7259 16.125 18 16.125C16.2741 16.125 14.875 17.5241 14.875 19.25C14.875 20.9759 16.2741 22.375 18 22.375Z" stroke="#0B53CB" stroke-width="1.5" stroke-linecap="round" stroke-linejoin="round"/>
<path d="M13.625 24.875C14.0737 24.1136 14.7133 23.4825 15.4805 23.0441C16.2478 22.6056 17.1163 22.375 18 22.375C18.8837 22.375 19.7522 22.6056 20.5195 23.0441C21.2867 23.4825 21.9263 24.1136 22.375 24.875" stroke="#0B53CB" stroke-width="1.5" stroke-linecap="round" stroke-linejoin="round"/>
<path d="M20.5781 14.25C20.695 13.7973 20.9365 13.3865 21.2751 13.0641C21.6138 12.7418 22.036 12.5209 22.4939 12.4265C22.9518 12.3321 23.427 12.368 23.8656 12.5301C24.3041 12.6922 24.6884 12.974 24.9748 13.3436C25.2612 13.7131 25.4382 14.1556 25.4858 14.6207C25.5333 15.0858 25.4495 15.5549 25.2439 15.9748C25.0382 16.3946 24.7189 16.7484 24.3223 16.9959C23.9256 17.2434 23.4675 17.3748 23 17.375" stroke="#0B53CB" stroke-width="1.5" stroke-linecap="round" stroke-linejoin="round"/>
<path d="M13 17.375C12.5325 17.3748 12.0744 17.2434 11.6777 16.9959C11.2811 16.7484 10.9618 16.3946 10.7561 15.9748C10.5505 15.5549 10.4667 15.0858 10.5142 14.6207C10.5618 14.1556 10.7388 13.7131 11.0252 13.3436C11.3116 12.974 11.6959 12.6922 12.1344 12.5301C12.5729 12.368 13.0481 12.3321 13.506 12.4265C13.9639 12.5209 14.3862 12.7418 14.7249 13.0641C15.0635 13.3865 15.305 13.7973 15.4219 14.25" stroke="#0B53CB" stroke-width="1.5" stroke-linecap="round" stroke-linejoin="round"/>
</g>
<defs>
<clipPath id="clip0_885_19169">
<rect width="20" height="20" fill="white" transform="translate(8 8)"/>
</clipPath>
</defs>
</svg>
