<svg width="32" height="32" viewBox="0 0 32 32" fill="none" xmlns="http://www.w3.org/2000/svg">
<rect width="32" height="32" rx="16" fill="#DFF1FF"/>
<g clip-path="url(#clip0_3871_73070)">
<path d="M10.0113 17.8569C10.0138 17.9077 10.006 17.9585 9.98828 18.0062C9.97058 18.0538 9.94336 18.0974 9.90828 18.1343C9.8732 18.1711 9.831 18.2004 9.78423 18.2204C9.73747 18.2404 9.68712 18.2507 9.63626 18.2506H5.50001C5.33073 18.2509 5.16634 18.1939 5.03358 18.0889C4.90081 17.9838 4.80748 17.837 4.76876 17.6722C4.74465 17.5594 4.74576 17.4427 4.77202 17.3304C4.79827 17.218 4.84902 17.1129 4.92064 17.0225C5.58233 16.145 6.46028 15.4541 7.46876 15.0172C7.026 14.6135 6.68642 14.1096 6.47846 13.5477C6.27049 12.9858 6.2002 12.3822 6.27346 11.7876C6.34672 11.1929 6.56141 10.6244 6.89955 10.1298C7.23768 9.63517 7.68941 9.22876 8.21691 8.94461C8.74441 8.66047 9.33232 8.50685 9.93139 8.49664C10.5305 8.48642 11.1233 8.61991 11.6601 8.88591C12.197 9.15191 12.6624 9.54268 13.0171 10.0255C13.3719 10.5083 13.6059 11.0691 13.6994 11.6609C13.7115 11.7405 13.6972 11.8219 13.6588 11.8926C13.6204 11.9634 13.5599 12.0196 13.4866 12.0528C12.4463 12.5337 11.5653 13.3022 10.9475 14.2675C10.3298 15.2327 10.001 16.3546 10 17.5006C10 17.6206 10 17.7388 10.0113 17.8569ZM27.0738 17.0216C26.4136 16.1451 25.5376 15.4545 24.5313 15.0172C24.974 14.6135 25.3136 14.1096 25.5216 13.5477C25.7295 12.9858 25.7998 12.3822 25.7266 11.7876C25.6533 11.1929 25.4386 10.6244 25.1005 10.1298C24.7623 9.63517 24.3106 9.22876 23.7831 8.94461C23.2556 8.66047 22.6677 8.50685 22.0686 8.49664C21.4696 8.48642 20.8768 8.61991 20.3399 8.88591C19.803 9.15191 19.3377 9.54268 18.9829 10.0255C18.6281 10.5083 18.3941 11.0691 18.3006 11.6609C18.2886 11.7405 18.3028 11.8219 18.3412 11.8926C18.3796 11.9634 18.4401 12.0196 18.5134 12.0528C19.5537 12.5337 20.4347 13.3022 21.0525 14.2675C21.6702 15.2327 21.999 16.3546 22 17.5006C22 17.6206 22 17.7388 21.9888 17.8569C21.9862 17.9077 21.994 17.9585 22.0117 18.0062C22.0294 18.0538 22.0567 18.0974 22.0917 18.1343C22.1268 18.1711 22.169 18.2004 22.2158 18.2204C22.2626 18.2404 22.3129 18.2507 22.3638 18.2506H26.5C26.6693 18.2509 26.8337 18.1939 26.9664 18.0889C27.0992 17.9838 27.1925 17.837 27.2313 17.6722C27.2555 17.5592 27.2544 17.4422 27.228 17.3297C27.2015 17.2172 27.1505 17.112 27.0784 17.0216H27.0738ZM18.73 21.0697C19.4768 20.4978 20.0256 19.7063 20.2992 18.8063C20.5729 17.9064 20.5577 16.9434 20.2558 16.0526C19.9538 15.1617 19.3804 14.3879 18.6159 13.8399C17.8515 13.2918 16.9345 12.997 15.9939 12.997C15.0533 12.997 14.1364 13.2918 13.3719 13.8399C12.6075 14.3879 12.034 15.1617 11.7321 16.0526C11.4301 16.9434 11.4149 17.9064 11.6886 18.8063C11.9623 19.7063 12.5111 20.4978 13.2578 21.0697C11.9327 21.6438 10.8262 22.6272 10.1003 23.8756C10.0345 23.9897 9.99983 24.119 9.99984 24.2507C9.99985 24.3823 10.0345 24.5117 10.1004 24.6257C10.1662 24.7397 10.2609 24.8344 10.375 24.9002C10.489 24.966 10.6183 25.0007 10.75 25.0006H21.25C21.3817 25.0007 21.511 24.966 21.6251 24.9002C21.7391 24.8344 21.8338 24.7397 21.8997 24.6257C21.9655 24.5117 22.0002 24.3823 22.0002 24.2507C22.0002 24.119 21.9655 23.9897 21.8997 23.8756C21.1723 22.6263 20.0637 21.643 18.7366 21.0697H18.73Z" fill="#444A5B"/>
</g>
<defs>
<clipPath id="clip0_3871_73070">
<rect width="24" height="24" fill="white" transform="translate(4 4)"/>
</clipPath>
</defs>
</svg>
