<svg width="38" height="38" viewBox="0 0 38 38" fill="none" xmlns="http://www.w3.org/2000/svg">
<rect x="0.5" y="0.5" width="37" height="37" rx="7.5" stroke="#E4E5EB"/>
<g clip-path="url(#clip0_1174_13873)">
<path d="M20.25 19C20.25 19.2472 20.1767 19.4889 20.0393 19.6945C19.902 19.9 19.7068 20.0602 19.4784 20.1549C19.2499 20.2495 18.9986 20.2742 18.7561 20.226C18.5137 20.1778 18.2909 20.0587 18.1161 19.8839C17.9413 19.7091 17.8223 19.4863 17.774 19.2439C17.7258 19.0014 17.7505 18.7501 17.8452 18.5216C17.9398 18.2932 18.1 18.098 18.3055 17.9607C18.5111 17.8233 18.7528 17.75 19 17.75C19.3315 17.75 19.6495 17.8817 19.8839 18.1161C20.1183 18.3505 20.25 18.6685 20.25 19ZM19.6945 15.0393C19.4889 15.1767 19.2472 15.25 19 15.25C18.6685 15.25 18.3505 15.1183 18.1161 14.8839C17.8817 14.6495 17.75 14.3315 17.75 14C17.75 13.7528 17.8233 13.5111 17.9607 13.3055C18.098 13.1 18.2932 12.9398 18.5216 12.8452C18.7501 12.7505 19.0014 12.7258 19.2439 12.774C19.4863 12.8223 19.7091 12.9413 19.8839 13.1161C20.0587 13.2909 20.1778 13.5137 20.226 13.7561C20.2742 13.9986 20.2495 14.2499 20.1548 14.4784C20.0602 14.7068 19.9 14.902 19.6945 15.0393ZM18.3055 22.9607C18.5111 22.8233 18.7528 22.75 19 22.75C19.3315 22.75 19.6495 22.8817 19.8839 23.1161C20.1183 23.3505 20.25 23.6685 20.25 24C20.25 24.2472 20.1767 24.4889 20.0393 24.6945C19.902 24.9 19.7068 25.0602 19.4784 25.1549C19.2499 25.2495 18.9986 25.2742 18.7561 25.226C18.5137 25.1778 18.2909 25.0587 18.1161 24.8839C17.9413 24.7091 17.8223 24.4863 17.774 24.2439C17.7258 24.0014 17.7505 23.7501 17.8452 23.5216C17.9398 23.2932 18.1 23.098 18.3055 22.9607Z" fill="#444A5B" stroke="#444A5B"/>
</g>
<defs>
<clipPath id="clip0_1174_13873">
<rect width="16" height="16" fill="white" transform="translate(11 11)"/>
</clipPath>
</defs>
</svg>
