<svg width="24" height="24" viewBox="0 0 24 24" fill="none" xmlns="http://www.w3.org/2000/svg">
<rect width="24" height="24" rx="12" fill="#FFF0F0"/>
<g clip-path="url(#clip0_10077_73344)">
<path d="M12 12.5V9" stroke="#F50202" stroke-linecap="round" stroke-linejoin="round"/>
<path d="M14.2781 6H9.72188C9.6562 5.99995 9.59115 6.01284 9.53045 6.03793C9.46975 6.06303 9.41459 6.09983 9.36813 6.14625L6.14625 9.36813C6.09983 9.41459 6.06303 9.46975 6.03793 9.53045C6.01284 9.59115 5.99995 9.6562 6 9.72188V14.2781C5.99995 14.3438 6.01284 14.4089 6.03793 14.4696C6.06303 14.5302 6.09983 14.5854 6.14625 14.6319L9.36813 17.8538C9.41459 17.9002 9.46975 17.937 9.53045 17.9621C9.59115 17.9872 9.6562 18.0001 9.72188 18H14.2781C14.3438 18.0001 14.4089 17.9872 14.4696 17.9621C14.5302 17.937 14.5854 17.9002 14.6319 17.8538L17.8538 14.6319C17.9002 14.5854 17.937 14.5302 17.9621 14.4696C17.9872 14.4089 18.0001 14.3438 18 14.2781V9.72188C18.0001 9.6562 17.9872 9.59115 17.9621 9.53045C17.937 9.46975 17.9002 9.41459 17.8538 9.36813L14.6319 6.14625C14.5854 6.09983 14.5302 6.06303 14.4696 6.03793C14.4089 6.01284 14.3438 5.99995 14.2781 6Z" stroke="#F50202" stroke-linecap="round" stroke-linejoin="round"/>
<path d="M12 15.375C12.3452 15.375 12.625 15.0952 12.625 14.75C12.625 14.4048 12.3452 14.125 12 14.125C11.6548 14.125 11.375 14.4048 11.375 14.75C11.375 15.0952 11.6548 15.375 12 15.375Z" fill="#F50202"/>
</g>
<defs>
<clipPath id="clip0_10077_73344">
<rect width="16" height="16" fill="white" transform="translate(4 4)"/>
</clipPath>
</defs>
</svg>
