<svg width="45" height="48" viewBox="0 0 45 48" fill="none" xmlns="http://www.w3.org/2000/svg">
<g clip-path="url(#clip0_3035_28283)">
<path fill-rule="evenodd" clip-rule="evenodd" d="M6.584 34.21V47.2225C6.584 47.6508 6.92989 48.0002 7.3539 48.0002H20.6508C29.252 48.0002 35.593 44.2182 39.5488 38.7773C39.6933 38.5785 39.7355 38.3462 39.67 38.1086C39.6046 37.8707 39.4497 37.694 39.2241 37.5991C24.7418 31.5099 12.1334 20.7822 1.39878 5.41673C1.20213 5.13523 0.861903 5.01944 0.536893 5.1238C0.211748 5.22802 -0.00012207 5.52055 -0.00012207 5.86505V12.2227C-0.00012207 12.3979 0.0494444 12.5486 0.153292 12.6888C5.71295 20.1917 12.7469 26.7764 21.2547 32.443C21.6005 32.6732 21.7041 33.139 21.4887 33.4964C21.2745 33.8523 20.8208 33.9744 20.4597 33.7734C14.7905 30.619 9.49159 26.9043 4.56323 22.6293C4.32967 22.4267 4.01988 22.3828 3.74026 22.5126C3.46064 22.6424 3.29187 22.9084 3.29187 23.2193V27.5128C3.29187 27.7592 3.3937 27.9713 3.58537 28.1238C6.29388 30.2786 9.16186 32.2844 12.1891 34.1409C12.5413 34.3568 12.6628 34.8143 12.4648 35.1792C12.267 35.544 11.8208 35.687 11.4512 35.5042C10.1945 34.8833 8.9543 34.2256 7.73063 33.5318C7.48563 33.3927 7.20735 33.3953 6.96491 33.5387C6.72233 33.6823 6.584 33.9259 6.584 34.2099V34.21Z" fill="white"/>
<path fill-rule="evenodd" clip-rule="evenodd" d="M5.05921 1.15242C14.6382 18.7684 26.3582 30.5557 40.2188 36.5141C40.5837 36.671 41.003 36.5252 41.1946 36.1745C48.9632 21.9615 42.7705 0 20.8682 0H5.73402C5.45413 0 5.21384 0.138509 5.07133 0.381919C4.92883 0.625329 4.92439 0.904659 5.05921 1.15242Z" fill="white"/>
</g>
<defs>
<clipPath id="clip0_3035_28283">
<rect width="44.4" height="48" fill="white"/>
</clipPath>
</defs>
</svg>
