<svg width="74" height="84" viewBox="0 0 74 84" fill="none" xmlns="http://www.w3.org/2000/svg">
<g id="&#229;&#136;&#134;&#231;&#187;&#132; 33">
<ellipse id="&#230;&#164;&#173;&#229;&#156;&#134;&#229;&#189;&#162; copy 59" opacity="0.425921" cx="39.8938" cy="76.369" rx="29.4231" ry="7.32308" fill="url(#paint0_linear_1825_21025)"/>
<g id="&#229;&#136;&#134;&#231;&#187;&#132; 24">
<g id="&#229;&#136;&#134;&#231;&#187;&#132; 12">
<path id="&#232;&#183;&#175;&#229;&#190;&#132; 26" d="M29.1995 34.5232C29.1995 34.5232 28.3937 36.6385 28.3937 38.1256C27.588 51.0738 29.5852 72.1847 29.5852 72.1847H32.687L37.2655 40.4197L43.4714 72.1847H46.5229C46.5229 72.1847 46.9258 51.7934 45.7172 38.1256C45.7172 36.6539 45.0143 35.2428 45.0143 35.2428L29.1995 34.5232Z" fill="url(#paint1_linear_1825_21025)"/>
<path id="&#232;&#183;&#175;&#229;&#190;&#132; 23" d="M26.47 18.1338L20.3211 19.453L18.2228 18.9476L4.89255 17.1925L1.67373 17.1925L1.66109 13.3291L2.45514 14.8124L3.88392 15.2194C3.88392 15.2194 4.65417 13.809 4.89255 14.0496C5.13093 14.2902 5.23429 15.2811 5.23429 15.2811L6.42536 15.8401L20.6168 15.8401L23.97 14.0538L26.47 18.1338Z" fill="#FDE7E6"/>
<path id="&#232;&#183;&#175;&#229;&#190;&#132; 23_2" d="M46.4714 18.1338L52.8043 19.453L54.9026 18.9476L68.2328 17.1925L71.8801 15.5066L73.1192 13.2625L72.6554 13.203L70.6703 14.8124L69.2415 15.2194C69.2415 15.2194 68.4712 13.809 68.2329 14.0496C67.9945 14.2902 67.8911 15.2811 67.8911 15.2811L66.7 15.8401L52.5086 15.8401L48.9714 14.0538L46.4714 18.1338Z" fill="#FDE7E6"/>
<path id="&#232;&#183;&#175;&#229;&#190;&#132; 2" d="M50.0859 14.2901L48.1346 18.598H43.3635L45.4706 36.4909C45.4706 36.4909 39.4538 37.4077 36.2724 37.63C33.0911 37.8523 28.5643 36.4909 28.5643 36.4909C28.5643 36.4909 28.5643 30.2518 28.5643 19.0539L24.328 18.598L23.5475 14.2901C23.5475 14.2901 27.5041 11.7718 28.5643 11.3532C29.6246 10.9346 33.2081 10.4612 33.2081 10.4612L38.8771 10.4612C38.8771 10.4612 43.3804 10.619 44.2319 11.3532C45.0833 12.0875 50.0859 14.2901 50.0859 14.2901Z" fill="url(#paint2_linear_1825_21025)"/>
<g id="&#229;&#136;&#134;&#231;&#187;&#132; 10">
<path id="&#229;&#144;&#136;&#229;&#185;&#182;&#229;&#189;&#162;&#231;&#138;&#182;" fill-rule="evenodd" clip-rule="evenodd" d="M38.4917 7.32324H34.9414V11.595H38.4917V7.32324ZM36.3615 14.0401C36.3615 13.4336 34.9414 11.5954 34.9414 11.5954H38.4917C38.4917 11.5954 36.3615 14.6466 36.3615 14.0401Z" fill="#FECECD"/>
<ellipse id="&#230;&#164;&#173;&#229;&#156;&#134;&#229;&#189;&#162;" cx="36.5473" cy="6.02213" rx="3.7368" ry="4.80192" fill="#FFE9E9"/>
<path id="&#232;&#183;&#175;&#229;&#190;&#132; 20" fill-rule="evenodd" clip-rule="evenodd" d="M32.4468 6.33365C32.7457 5.42827 32.7457 3.43149 33.3436 3.36637C33.9415 3.30126 35.1372 3.67934 36.333 2.94581C36.9309 2.54316 37.2299 2.49272 37.2299 2.29047C40.2193 2.77233 38.4314 4.22639 39.9204 5.82825C40.0756 5.99528 40.5182 5.82825 40.5182 5.82825C40.5182 5.82825 40.5182 1.88423 40.2193 1.53237C39.9204 1.18051 38.7246 -0.236523 38.1267 0.774273C38.1267 0.268875 36.9309 -0.252572 35.7351 0.134501C34.5394 0.521574 32.7457 1.27967 32.4468 2.29047C32.1478 3.30126 31.8489 5.32285 32.4468 6.33365Z" fill="#513450"/>
</g>
<path id="&#232;&#183;&#175;&#229;&#190;&#132; 27" d="M29.8232 72.1846L28.9765 73.4913C28.445 74.3116 28.1621 75.2682 28.1621 76.2456C28.1621 76.3139 28.2174 76.3692 28.2856 76.3692H32.2601C32.5458 76.3692 32.7775 76.1375 32.7775 75.8518C32.7775 74.8124 32.5688 73.7837 32.1637 72.8266L31.8919 72.1846H29.8232Z" fill="#677285"/>
<path id="&#232;&#183;&#175;&#229;&#190;&#132; 27 copy" d="M46.1182 72.1846L46.9649 73.4913C47.4965 74.3116 47.7793 75.2682 47.7793 76.2456C47.7793 76.3139 47.724 76.3692 47.6558 76.3692H43.6813C43.3956 76.3692 43.1639 76.1375 43.1639 75.8518C43.1639 74.8124 43.3727 73.7837 43.7778 72.8266L44.0495 72.1846H46.1182Z" fill="#677285"/>
</g>
<path id="&#232;&#183;&#175;&#229;&#190;&#132; 58" d="M0.931641 14.1886C0.931641 14.1886 2.66241 13.4039 2.66241 13.6655C2.66241 13.927 2.66241 16.8039 2.66241 16.8039L1.50856 17.327L0.931641 14.1886Z" fill="#FFE9E9"/>
</g>
</g>
<defs>
<linearGradient id="paint0_linear_1825_21025" x1="17.8085" y1="77.237" x2="32.1396" y2="101.826" gradientUnits="userSpaceOnUse">
<stop stop-color="#C4CDD1"/>
<stop offset="1" stop-color="#C6CFD3" stop-opacity="0.01"/>
</linearGradient>
<linearGradient id="paint1_linear_1825_21025" x1="46.5545" y1="72.1847" x2="46.5545" y2="34.8055" gradientUnits="userSpaceOnUse">
<stop stop-color="#A1A7B8"/>
<stop offset="1" stop-color="#7B8195"/>
</linearGradient>
<linearGradient id="paint2_linear_1825_21025" x1="63.5113" y1="22.8805" x2="40.7625" y2="51.5783" gradientUnits="userSpaceOnUse">
<stop stop-color="#E5E9F0"/>
<stop offset="1" stop-color="#D2DAE8"/>
</linearGradient>
</defs>
</svg>
