<svg width="24" height="25" viewBox="0 0 24 25" fill="none" xmlns="http://www.w3.org/2000/svg">
<g id="Icons" clip-path="url(#clip0_885_19170)">
<path id="Vector" d="M15.4191 19.1647C15.4929 19.2779 15.5347 19.4089 15.5402 19.5439C15.5457 19.6789 15.5147 19.8128 15.4503 19.9316C15.386 20.0504 15.2908 20.1496 15.1747 20.2188C15.0586 20.2879 14.926 20.3244 14.791 20.3244H0.959076C0.823978 20.3244 0.691393 20.2879 0.575329 20.2188C0.459265 20.1496 0.364031 20.0504 0.299689 19.9316C0.235348 19.8128 0.204287 19.6789 0.20979 19.5439C0.215293 19.4089 0.257154 19.2779 0.330951 19.1647C1.38668 17.5397 2.93954 16.2996 4.75783 15.6294C3.75264 14.9602 2.98949 13.9853 2.58123 12.8488C2.17297 11.7124 2.14128 10.4747 2.49085 9.31883C2.84041 8.16296 3.55267 7.15027 4.5223 6.43051C5.49193 5.71076 6.66744 5.32214 7.87501 5.32214C9.08258 5.32214 10.2581 5.71076 11.2277 6.43051C12.1974 7.15027 12.9096 8.16296 13.2592 9.31883C13.6087 10.4747 13.5771 11.7124 13.1688 12.8488C12.7605 13.9853 11.9974 14.9602 10.9922 15.6294C12.8105 16.2996 14.3634 17.5397 15.4191 19.1647ZM23.6606 19.1507C22.6046 17.5325 21.0552 16.2977 19.2422 15.6294C20.4289 14.8301 21.2663 13.6086 21.5841 12.2135C21.9019 10.8184 21.6762 9.35472 20.9528 8.12026C20.2294 6.8858 19.0628 5.9734 17.6904 5.56877C16.318 5.16413 14.843 5.29768 13.5656 5.94224C13.5168 5.96746 13.4741 6.00311 13.4406 6.04667C13.407 6.09022 13.3835 6.14062 13.3716 6.19429C13.3597 6.24796 13.3597 6.30359 13.3717 6.35724C13.3837 6.41088 13.4073 6.46124 13.441 6.50474C14.3908 7.68956 14.9363 9.1474 14.9975 10.6647C15.0588 12.182 14.6325 13.6791 13.7813 14.9366C13.7262 15.0188 13.7059 15.1194 13.7247 15.2165C13.7435 15.3136 13.7999 15.3993 13.8816 15.4551C14.9915 16.2297 15.9416 17.211 16.68 18.3454C16.9778 18.8014 17.0994 19.3503 17.0222 19.8894C17.0135 19.9431 17.0166 19.9979 17.0312 20.0503C17.0458 20.1026 17.0716 20.1511 17.1068 20.1925C17.142 20.2339 17.1858 20.2671 17.2352 20.2899C17.2845 20.3127 17.3382 20.3244 17.3925 20.3244H23.0456C23.2108 20.3245 23.3713 20.27 23.5024 20.1695C23.6334 20.069 23.7276 19.928 23.7703 19.7685C23.7964 19.6636 23.8001 19.5544 23.7812 19.4479C23.7623 19.3415 23.7212 19.2402 23.6606 19.1507Z" fill="#444A5B"/>
</g>
<defs>
<clipPath id="clip0_885_19170">
<rect width="24" height="24" fill="white" transform="translate(0 0.824463)"/>
</clipPath>
</defs>
</svg>
