<svg width="226" height="225" viewBox="0 0 226 225" fill="none" xmlns="http://www.w3.org/2000/svg">
<g id="no content backup">
<g id="&#229;&#136;&#134;&#231;&#187;&#132; 14">
<g id="&#229;&#136;&#134;&#231;&#187;&#132; 4">
<g id="&#229;&#136;&#134;&#231;&#187;&#132; 3 copy">
<path id="&#232;&#183;&#175;&#229;&#190;&#132;" d="M224.564 192.513C229.991 181.774 214.481 128.077 106.942 128.077C29.3205 128.077 -6.3056 172.029 1.57063 194.303" fill="url(#paint0_radial_1053_8534)"/>
<mask id="mask0_1053_8534" style="mask-type:luminance" maskUnits="userSpaceOnUse" x="0" y="128" width="226" height="67">
<path id="&#232;&#183;&#175;&#229;&#190;&#132;_2" d="M224.564 192.513C229.991 181.774 214.481 128.077 106.942 128.077C29.3205 128.077 -6.3056 172.029 1.57063 194.303" fill="white"/>
</mask>
<g mask="url(#mask0_1053_8534)">
<ellipse id="&#230;&#164;&#173;&#229;&#156;&#134;&#229;&#189;&#162; copy 2" opacity="0.671968" cx="90.3555" cy="175.496" rx="5.91414" ry="3.28501" fill="url(#paint1_linear_1053_8534)"/>
<ellipse id="&#230;&#164;&#173;&#229;&#156;&#134;&#229;&#189;&#162; copy 3" opacity="0.256348" cx="150.72" cy="153.175" rx="9.33119" ry="5.12462" fill="url(#paint2_linear_1053_8534)"/>
<ellipse id="&#230;&#164;&#173;&#229;&#156;&#134;&#229;&#189;&#162; copy 4" opacity="0.729957" cx="44.5265" cy="139.508" rx="9.33119" ry="5.12462" fill="url(#paint3_linear_1053_8534)"/>
</g>
</g>
<g id="&#229;&#136;&#134;&#231;&#187;&#132; 7">
<path id="&#232;&#183;&#175;&#229;&#190;&#132; 19" opacity="0.5" d="M88.1641 139.985C88.1641 139.985 111.047 150.745 120.126 154.875C127.316 158.146 164.343 168.609 168.754 165.635C173.165 162.661 182.904 154.498 179.688 148.905C176.473 143.312 159.564 133.27 151.477 131.803C143.39 130.336 120.267 137.006 120.267 137.006L100.543 140.393L88.1641 139.985Z" fill="url(#paint4_linear_1053_8534)"/>
<path id="&#231;&#159;&#169;&#229;&#189;&#162; copy 6&#229;&#164;&#135;&#228;&#187;&#189;" d="M105.124 91.875L79.6244 110.625L86.4236 94.6731L111.961 78.4605L105.124 91.875Z" fill="#E2E7EC"/>
<path id="&#231;&#159;&#169;&#229;&#189;&#162; copy 4" d="M86 95.0023L111.962 78.75V123.075L88.1635 139.76L86 95.0023Z" fill="#D8DFE6"/>
<path id="&#231;&#159;&#169;&#229;&#189;&#162; copy 5" d="M111.961 78.75L151.769 88.0631V132.404L111.961 123.091V78.75Z" fill="#E9EFF1"/>
<path id="&#231;&#159;&#169;&#229;&#189;&#162;" d="M86 95L126.673 104.505V148.846L88.1635 140.003L86 95Z" fill="#E8EAEB"/>
<g id="&#231;&#159;&#169;&#229;&#189;&#162;_2">
<path id="Mask" d="M125.807 104.522L151.768 88.2693V132.594L125.807 148.846V104.522Z" fill="#D8DFE6"/>
<mask id="mask1_1053_8534" style="mask-type:luminance" maskUnits="userSpaceOnUse" x="125" y="88" width="27" height="61">
<path id="Mask_2" d="M125.807 104.522L151.768 88.2693V132.594L125.807 148.846V104.522Z" fill="white"/>
</mask>
<g mask="url(#mask1_1053_8534)">
<rect id="&#231;&#159;&#169;&#229;&#189;&#162;_3" x="135.449" y="84.5757" width="8.15934" height="67.9644" fill="#C7D0D9"/>
</g>
</g>
<path id="&#231;&#159;&#169;&#229;&#189;&#162; copy 6" d="M137.481 117.692L163.018 101.48L151.344 88.2693L125.807 104.482L137.481 117.692Z" fill="#E2E7EC"/>
</g>
</g>
</g>
<g id="&#231;&#188;&#150;&#231;&#187;&#132; 2">
<g id="&#232;&#183;&#175;&#229;&#190;&#132; 28">
<path id="&#232;&#146;&#153;&#231;&#137;&#136;" fill-rule="evenodd" clip-rule="evenodd" d="M145.711 46.545C144.8 46.8238 125.921 58.119 125.921 58.119L131.43 58.5298L135.345 62.8564C135.345 62.8564 146.623 46.2663 145.711 46.545Z" fill="#E8EAEB"/>
<mask id="mask2_1053_8534" style="mask-type:luminance" maskUnits="userSpaceOnUse" x="125" y="46" width="21" height="17">
<path id="&#232;&#146;&#153;&#231;&#137;&#136;_2" fill-rule="evenodd" clip-rule="evenodd" d="M145.711 46.545C144.8 46.8238 125.921 58.119 125.921 58.119L131.43 58.5298L135.345 62.8564C135.345 62.8564 146.623 46.2663 145.711 46.545Z" fill="white"/>
</mask>
<g mask="url(#mask2_1053_8534)">
<path id="&#232;&#183;&#175;&#229;&#190;&#132; 28_2" fill-rule="evenodd" clip-rule="evenodd" d="M131.431 58.5299L145.712 46.5451L135.346 62.8565L131.431 58.5299Z" fill="#D8DFE6"/>
</g>
</g>
<path id="&#232;&#183;&#175;&#229;&#190;&#132; 13" fill-rule="evenodd" clip-rule="evenodd" d="M142.876 59.6335L136.255 58.9416L145.718 46.6616L142.876 59.6335Z" fill="#E8EAEB"/>
</g>
<path id="&#232;&#183;&#175;&#229;&#190;&#132; 5" fill-rule="evenodd" clip-rule="evenodd" d="M130.689 67.8147C131.103 66.9394 131.519 66.0334 131.938 65.0967L132.623 65.4031C132.201 66.3444 131.783 67.2551 131.367 68.1352L130.689 67.8147ZM127.995 73.1548C128.452 72.3114 128.913 71.4281 129.378 70.5049L130.048 70.842C129.58 71.7719 129.115 72.662 128.654 73.5122L127.995 73.1548ZM126.525 75.7527C125.992 76.6511 125.465 77.493 124.942 78.2785L125.567 78.6937C126.096 77.8973 126.631 77.0445 127.17 76.1353L126.525 75.7527ZM121.283 82.9509C121.916 82.2948 122.558 81.546 123.209 80.7046L123.802 81.1637C123.135 82.0258 122.475 82.795 121.823 83.4715L121.283 82.9509ZM119.08 84.8889C118.204 85.5172 117.35 85.9517 116.52 86.1946L116.73 86.9144C117.646 86.6464 118.575 86.1737 119.517 85.4985L119.08 84.8889ZM111.231 84.968C112.055 85.6331 112.894 86.0687 113.747 86.2788L113.568 87.007C112.603 86.7694 111.666 86.283 110.76 85.5518L111.231 84.968ZM109.209 82.8378C109.163 82.7769 109.116 82.7153 109.07 82.6529C108.466 81.8403 108.028 81.0691 107.748 80.3406L107.048 80.6094C107.353 81.4052 107.825 82.2353 108.468 83.1002C108.516 83.1653 108.565 83.2296 108.613 83.293L109.209 82.8378ZM109.029 75.2933C108.219 75.9624 107.698 76.7305 107.486 77.5874L106.758 77.4068C107.011 76.3844 107.624 75.4814 108.552 74.715L109.029 75.2933ZM111.535 73.8839C112.379 73.5544 113.328 73.2856 114.357 73.0828L114.212 72.3469C113.141 72.558 112.149 72.8389 111.262 73.1853L111.535 73.8839ZM120.229 72.6537C119.231 72.6182 118.236 72.6347 117.268 72.7029L117.215 71.9547C118.21 71.8846 119.231 71.8677 120.255 71.9042L120.229 72.6537ZM123.214 72.9166C124.219 73.0597 125.192 73.2558 126.11 73.5015L126.304 72.777C125.356 72.5233 124.354 72.3213 123.32 72.1741L123.214 72.9166ZM131.386 75.9732C130.7 75.4151 129.863 74.9141 128.897 74.4787L129.206 73.7949C130.228 74.2557 131.12 74.7899 131.859 75.3914L131.386 75.9732ZM133.173 78.2259C133.354 78.6463 133.47 79.0843 133.519 79.5398C133.57 80.0217 133.588 80.506 133.572 80.993L134.322 81.0174C134.339 80.4957 134.32 79.9765 134.265 79.4599C134.208 78.9293 134.073 78.4184 133.862 77.9294L133.173 78.2259ZM131.972 86.5812C132.455 85.6707 132.828 84.7697 133.093 83.8784L133.812 84.0921C133.533 85.0323 133.14 85.9791 132.635 86.9324L131.972 86.5812ZM130.384 89.0886C129.829 89.8443 129.202 90.606 128.502 91.3736L129.056 91.8789C129.773 91.0922 130.417 90.3101 130.988 89.5325L130.384 89.0886ZM124.195 95.4316C124.991 94.7726 125.737 94.1174 126.432 93.4663L126.945 94.0136C126.238 94.6754 125.481 95.3407 124.674 96.0093L124.195 95.4316ZM121.832 97.2888C121.061 97.8657 120.252 98.4454 119.405 99.028L119.83 99.6458C120.685 99.0577 121.502 98.4722 122.281 97.8893L121.832 97.2888ZM115.329 101.675C115.861 101.347 116.383 101.02 116.892 100.694L117.297 101.325C116.783 101.654 116.258 101.984 115.722 102.314L115.329 101.675Z" fill="#C7D0D9"/>
</g>
<defs>
<radialGradient id="paint0_radial_1053_8534" cx="0" cy="0" r="1" gradientUnits="userSpaceOnUse" gradientTransform="translate(98.0832 151.044) rotate(-90) scale(38.5052 402.149)">
<stop stop-color="#EBEDF0" stop-opacity="0.24"/>
<stop offset="0.536775" stop-color="#EBEDF0" stop-opacity="0.845525"/>
<stop offset="1" stop-color="#E0E4E7" stop-opacity="0.01"/>
</radialGradient>
<linearGradient id="paint1_linear_1053_8534" x1="85.5952" y1="174.625" x2="87.3969" y2="178.479" gradientUnits="userSpaceOnUse">
<stop stop-color="#E1E7EA"/>
<stop offset="1" stop-color="#D0D6DC"/>
</linearGradient>
<linearGradient id="paint2_linear_1053_8534" x1="142.885" y1="152.696" x2="146.182" y2="159.572" gradientUnits="userSpaceOnUse">
<stop stop-color="#E1E7EA"/>
<stop offset="1" stop-color="#D0D6DC"/>
</linearGradient>
<linearGradient id="paint3_linear_1053_8534" x1="38.5767" y1="139.591" x2="40.4423" y2="147.023" gradientUnits="userSpaceOnUse">
<stop stop-color="#FBFBFB"/>
<stop offset="1" stop-color="#D9DFE3"/>
</linearGradient>
<linearGradient id="paint4_linear_1053_8534" x1="84.8015" y1="143.716" x2="91.4581" y2="173.568" gradientUnits="userSpaceOnUse">
<stop stop-color="#C4CDD1"/>
<stop offset="1" stop-color="#C6CFD3" stop-opacity="0.01"/>
</linearGradient>
</defs>
</svg>
