<svg width="24" height="24" viewBox="0 0 24 24" fill="none" xmlns="http://www.w3.org/2000/svg">
<g id="Icons" clip-path="url(#clip0_9441_53044)">
<path id="Vector" d="M10.75 5.25V9.75C10.75 10.0152 10.6446 10.2696 10.4571 10.4571C10.2696 10.6446 10.0152 10.75 9.75 10.75H5.25C4.98478 10.75 4.73043 10.6446 4.54289 10.4571C4.35536 10.2696 4.25 10.0152 4.25 9.75V5.25C4.25 4.98478 4.35536 4.73043 4.54289 4.54289C4.73043 4.35536 4.98478 4.25 5.25 4.25H9.75C10.0152 4.25 10.2696 4.35536 10.4571 4.54289C10.6446 4.73043 10.75 4.98478 10.75 5.25ZM4.54289 19.4571L4.18934 19.8107L4.54289 19.4571C4.35536 19.2696 4.25 19.0152 4.25 18.75V14.25C4.25 13.9848 4.35536 13.7304 4.54289 13.5429L4.18934 13.1893L4.54289 13.5429C4.73043 13.3554 4.98478 13.25 5.25 13.25H9.75C10.0152 13.25 10.2696 13.3554 10.4571 13.5429C10.6446 13.7304 10.75 13.9848 10.75 14.25V18.75C10.75 19.0152 10.6446 19.2696 10.4571 19.4571C10.2696 19.6446 10.0152 19.75 9.75 19.75H5.25C4.98478 19.75 4.73043 19.6446 4.54289 19.4571ZM14.25 4.25H18.75C19.0152 4.25 19.2696 4.35536 19.4571 4.54289L19.8107 4.18934L19.4571 4.54289C19.6446 4.73043 19.75 4.98478 19.75 5.25V9.75C19.75 10.0152 19.6446 10.2696 19.4571 10.4571C19.2696 10.6446 19.0152 10.75 18.75 10.75H14.25C13.9848 10.75 13.7304 10.6446 13.5429 10.4571C13.3554 10.2696 13.25 10.0152 13.25 9.75V5.25C13.25 4.98478 13.3554 4.73043 13.5429 4.54289L13.1893 4.18934L13.5429 4.54289C13.7304 4.35536 13.9848 4.25 14.25 4.25ZM14.25 13.25H18.75C19.0152 13.25 19.2696 13.3554 19.4571 13.5429C19.6446 13.7304 19.75 13.9848 19.75 14.25V18.75C19.75 19.0152 19.6446 19.2696 19.4571 19.4571C19.2696 19.6446 19.0152 19.75 18.75 19.75H14.25C13.9848 19.75 13.7304 19.6446 13.5429 19.4571C13.3554 19.2696 13.25 19.0152 13.25 18.75V14.25C13.25 13.9848 13.3554 13.7304 13.5429 13.5429C13.7304 13.3554 13.9848 13.25 14.25 13.25Z" fill="#0B53CB" stroke="#0B53CB"/>
</g>
<defs>
<clipPath id="clip0_9441_53044">
<rect width="24" height="24" fill="white"/>
</clipPath>
</defs>
</svg>
