<svg width="24" height="24" viewBox="0 0 24 24" fill="none" xmlns="http://www.w3.org/2000/svg">
<g id="Icons" clip-path="url(#clip0_9441_18521)">
<path id="Vector" d="M22.25 10.3453V9.97175L21.8918 9.86583C21.1201 9.63768 20.4179 9.22009 19.8489 8.65112C19.2799 8.08214 18.8623 7.37986 18.6342 6.60823L18.5282 6.25H18.1547H5.84531H5.47175L5.36583 6.60823C5.13768 7.37986 4.72009 8.08214 4.15112 8.65112C3.58214 9.22009 2.87986 9.63768 2.10823 9.86583L1.75 9.97175V10.3453V13.6547V14.0282L2.10823 14.1342C2.87986 14.3623 3.58214 14.7799 4.15112 15.3489C4.72009 15.9179 5.13768 16.6201 5.36583 17.3918L5.47175 17.75H5.84531H18.1547H18.5282L18.6342 17.3918C18.8623 16.6201 19.2799 15.9179 19.8489 15.3489C20.4179 14.7799 21.1201 14.3623 21.8918 14.1342L22.25 14.0282V13.6547V10.3453ZM15.25 12C15.25 12.6428 15.0594 13.2711 14.7023 13.8056C14.3452 14.3401 13.8376 14.7566 13.2437 15.0026C12.6499 15.2486 11.9964 15.313 11.366 15.1876C10.7355 15.0622 10.1564 14.7526 9.7019 14.2981C9.24738 13.8436 8.93785 13.2645 8.81245 12.634C8.68705 12.0036 8.75141 11.3501 8.99739 10.7563C9.24338 10.1624 9.65994 9.65484 10.1944 9.29772C10.7289 8.94061 11.3572 8.75 12 8.75C12.862 8.75 13.6886 9.09241 14.2981 9.7019C14.9076 10.3114 15.25 11.138 15.25 12ZM22.75 6V18C22.75 18.0663 22.7237 18.1299 22.6768 18.1768C22.6299 18.2237 22.5663 18.25 22.5 18.25H1.5C1.43369 18.25 1.37011 18.2237 1.32322 18.1768C1.27634 18.1299 1.25 18.0663 1.25 18V6C1.25 5.9337 1.27634 5.87011 1.32322 5.82322C1.37011 5.77634 1.4337 5.75 1.5 5.75H22.5C22.5663 5.75 22.6299 5.77634 22.6768 5.82322C22.7237 5.87011 22.75 5.9337 22.75 6Z" fill="#0B53CB" stroke="#0B53CB"/>
</g>
<defs>
<clipPath id="clip0_9441_18521">
<rect width="24" height="24" fill="white"/>
</clipPath>
</defs>
</svg>
