<svg width="24" height="24" viewBox="0 0 24 24" fill="none" xmlns="http://www.w3.org/2000/svg">
<g id="Icons" clip-path="url(#clip0_9441_30338)">
<g id="Vector">
<mask id="path-1-inside-1_9441_30338" fill="white">
<path d="M6.01126 13.8569C6.0138 13.9077 6.00599 13.9585 5.98828 14.0062C5.97058 14.0538 5.94336 14.0974 5.90828 14.1343C5.8732 14.1711 5.831 14.2004 5.78423 14.2204C5.73747 14.2404 5.68712 14.2507 5.63626 14.2506H1.50001C1.33073 14.2509 1.16634 14.1939 1.03358 14.0889C0.900815 13.9838 0.807483 13.837 0.76876 13.6722C0.744649 13.5594 0.74576 13.4427 0.772015 13.3304C0.79827 13.218 0.84902 13.1129 0.920635 13.0225C1.58233 12.145 2.46028 11.4541 3.46876 11.0172C3.026 10.6135 2.68642 10.1096 2.47846 9.5477C2.27049 8.98578 2.2002 8.38222 2.27346 7.78755C2.34672 7.19289 2.56141 6.62443 2.89955 6.1298C3.23768 5.63517 3.68941 5.22876 4.21691 4.94461C4.74441 4.66047 5.33232 4.50685 5.93139 4.49664C6.53047 4.48642 7.12327 4.61991 7.66015 4.88591C8.19703 5.15191 8.66235 5.54268 9.01715 6.0255C9.37195 6.50832 9.60589 7.06912 9.69938 7.66094C9.71146 7.74053 9.6972 7.82188 9.65879 7.89262C9.62037 7.96336 9.5599 8.01961 9.48657 8.05282C8.44631 8.53373 7.56532 9.30217 6.94755 10.2675C6.32977 11.2327 6.00099 12.3546 6.00001 13.5006C6.00001 13.6206 6.00001 13.7388 6.01126 13.8569ZM23.0738 13.0216C22.4136 12.1451 21.5376 11.4545 20.5313 11.0172C20.974 10.6135 21.3136 10.1096 21.5216 9.5477C21.7295 8.98578 21.7998 8.38222 21.7266 7.78755C21.6533 7.19289 21.4386 6.62443 21.1005 6.1298C20.7623 5.63517 20.3106 5.22876 19.7831 4.94461C19.2556 4.66047 18.6677 4.50685 18.0686 4.49664C17.4696 4.48642 16.8768 4.61991 16.3399 4.88591C15.803 5.15191 15.3377 5.54268 14.9829 6.0255C14.6281 6.50832 14.3941 7.06912 14.3006 7.66094C14.2886 7.74053 14.3028 7.82188 14.3412 7.89262C14.3796 7.96336 14.4401 8.01961 14.5134 8.05282C15.5537 8.53373 16.4347 9.30217 17.0525 10.2675C17.6702 11.2327 17.999 12.3546 18 13.5006C18 13.6206 18 13.7388 17.9888 13.8569C17.9862 13.9077 17.994 13.9585 18.0117 14.0062C18.0294 14.0538 18.0567 14.0974 18.0917 14.1343C18.1268 14.1711 18.169 14.2004 18.2158 14.2204C18.2626 14.2404 18.3129 14.2507 18.3638 14.2506H22.5C22.6693 14.2509 22.8337 14.1939 22.9664 14.0889C23.0992 13.9838 23.1925 13.837 23.2313 13.6722C23.2555 13.5592 23.2544 13.4422 23.228 13.3297C23.2015 13.2172 23.1505 13.112 23.0784 13.0216H23.0738ZM14.73 17.0697C15.4768 16.4978 16.0256 15.7063 16.2992 14.8063C16.5729 13.9064 16.5577 12.9434 16.2558 12.0526C15.9538 11.1617 15.3804 10.3879 14.6159 9.83985C13.8515 9.29179 12.9345 8.99705 11.9939 8.99705C11.0533 8.99705 10.1364 9.29179 9.37191 9.83985C8.60747 10.3879 8.03399 11.1617 7.73206 12.0526C7.43012 12.9434 7.41493 13.9064 7.6886 14.8063C7.96227 15.7063 8.51106 16.4978 9.25782 17.0697C7.9327 17.6438 6.8262 18.6272 6.10032 19.8756C6.03449 19.9897 5.99983 20.119 5.99984 20.2507C5.99985 20.3823 6.03452 20.5117 6.10036 20.6257C6.16621 20.7397 6.26091 20.8344 6.37495 20.9002C6.48899 20.966 6.61834 21.0007 6.75001 21.0006H17.25C17.3817 21.0007 17.511 20.966 17.6251 20.9002C17.7391 20.8344 17.8338 20.7397 17.8997 20.6257C17.9655 20.5117 18.0002 20.3823 18.0002 20.2507C18.0002 20.119 17.9655 19.9897 17.8997 19.8756C17.1723 18.6263 16.0637 17.643 14.7366 17.0697H14.73Z"/>
</mask>
<path d="M6.01126 13.8569C6.0138 13.9077 6.00599 13.9585 5.98828 14.0062C5.97058 14.0538 5.94336 14.0974 5.90828 14.1343C5.8732 14.1711 5.831 14.2004 5.78423 14.2204C5.73747 14.2404 5.68712 14.2507 5.63626 14.2506H1.50001C1.33073 14.2509 1.16634 14.1939 1.03358 14.0889C0.900815 13.9838 0.807483 13.837 0.76876 13.6722C0.744649 13.5594 0.74576 13.4427 0.772015 13.3304C0.79827 13.218 0.84902 13.1129 0.920635 13.0225C1.58233 12.145 2.46028 11.4541 3.46876 11.0172C3.026 10.6135 2.68642 10.1096 2.47846 9.5477C2.27049 8.98578 2.2002 8.38222 2.27346 7.78755C2.34672 7.19289 2.56141 6.62443 2.89955 6.1298C3.23768 5.63517 3.68941 5.22876 4.21691 4.94461C4.74441 4.66047 5.33232 4.50685 5.93139 4.49664C6.53047 4.48642 7.12327 4.61991 7.66015 4.88591C8.19703 5.15191 8.66235 5.54268 9.01715 6.0255C9.37195 6.50832 9.60589 7.06912 9.69938 7.66094C9.71146 7.74053 9.6972 7.82188 9.65879 7.89262C9.62037 7.96336 9.5599 8.01961 9.48657 8.05282C8.44631 8.53373 7.56532 9.30217 6.94755 10.2675C6.32977 11.2327 6.00099 12.3546 6.00001 13.5006C6.00001 13.6206 6.00001 13.7388 6.01126 13.8569ZM23.0738 13.0216C22.4136 12.1451 21.5376 11.4545 20.5313 11.0172C20.974 10.6135 21.3136 10.1096 21.5216 9.5477C21.7295 8.98578 21.7998 8.38222 21.7266 7.78755C21.6533 7.19289 21.4386 6.62443 21.1005 6.1298C20.7623 5.63517 20.3106 5.22876 19.7831 4.94461C19.2556 4.66047 18.6677 4.50685 18.0686 4.49664C17.4696 4.48642 16.8768 4.61991 16.3399 4.88591C15.803 5.15191 15.3377 5.54268 14.9829 6.0255C14.6281 6.50832 14.3941 7.06912 14.3006 7.66094C14.2886 7.74053 14.3028 7.82188 14.3412 7.89262C14.3796 7.96336 14.4401 8.01961 14.5134 8.05282C15.5537 8.53373 16.4347 9.30217 17.0525 10.2675C17.6702 11.2327 17.999 12.3546 18 13.5006C18 13.6206 18 13.7388 17.9888 13.8569C17.9862 13.9077 17.994 13.9585 18.0117 14.0062C18.0294 14.0538 18.0567 14.0974 18.0917 14.1343C18.1268 14.1711 18.169 14.2004 18.2158 14.2204C18.2626 14.2404 18.3129 14.2507 18.3638 14.2506H22.5C22.6693 14.2509 22.8337 14.1939 22.9664 14.0889C23.0992 13.9838 23.1925 13.837 23.2313 13.6722C23.2555 13.5592 23.2544 13.4422 23.228 13.3297C23.2015 13.2172 23.1505 13.112 23.0784 13.0216H23.0738ZM14.73 17.0697C15.4768 16.4978 16.0256 15.7063 16.2992 14.8063C16.5729 13.9064 16.5577 12.9434 16.2558 12.0526C15.9538 11.1617 15.3804 10.3879 14.6159 9.83985C13.8515 9.29179 12.9345 8.99705 11.9939 8.99705C11.0533 8.99705 10.1364 9.29179 9.37191 9.83985C8.60747 10.3879 8.03399 11.1617 7.73206 12.0526C7.43012 12.9434 7.41493 13.9064 7.6886 14.8063C7.96227 15.7063 8.51106 16.4978 9.25782 17.0697C7.9327 17.6438 6.8262 18.6272 6.10032 19.8756C6.03449 19.9897 5.99983 20.119 5.99984 20.2507C5.99985 20.3823 6.03452 20.5117 6.10036 20.6257C6.16621 20.7397 6.26091 20.8344 6.37495 20.9002C6.48899 20.966 6.61834 21.0007 6.75001 21.0006H17.25C17.3817 21.0007 17.511 20.966 17.6251 20.9002C17.7391 20.8344 17.8338 20.7397 17.8997 20.6257C17.9655 20.5117 18.0002 20.3823 18.0002 20.2507C18.0002 20.119 17.9655 19.9897 17.8997 19.8756C17.1723 18.6263 16.0637 17.643 14.7366 17.0697H14.73Z" fill="#0B53CB"/>
<path d="M6.01126 13.8569L7.01001 13.8069L7.00889 13.7844L7.00676 13.7621L6.01126 13.8569ZM5.63626 14.2506L5.63751 13.2506H5.63626V14.2506ZM1.50001 14.2506V13.2506L1.4985 13.2506L1.50001 14.2506ZM0.76876 13.6722L-0.209146 13.8812L-0.207035 13.8911L-0.204725 13.9009L0.76876 13.6722ZM0.920635 13.0225L1.70453 13.6434L1.71192 13.6341L1.71908 13.6246L0.920635 13.0225ZM3.46876 11.0172L3.86626 11.9348L5.28522 11.3201L4.14251 10.2782L3.46876 11.0172ZM9.69938 7.66094L10.6881 7.51096L10.6871 7.5049L9.69938 7.66094ZM9.48657 8.05282L9.07401 7.14186L9.06694 7.14512L9.48657 8.05282ZM6.00001 13.5006L5.00001 13.4998V13.5006H6.00001ZM23.0738 13.0216L22.275 13.6232L22.575 14.0216H23.0738V13.0216ZM20.5313 11.0172L19.8575 10.2782L18.7162 11.3188L20.1327 11.9343L20.5313 11.0172ZM14.3006 7.66094L13.3129 7.5049L13.3119 7.51097L14.3006 7.66094ZM14.5134 8.05282L14.9331 7.1451L14.926 7.14188L14.5134 8.05282ZM18 13.5006H19L19 13.4998L18 13.5006ZM17.9888 13.8569L16.9933 13.7621L16.9911 13.7844L16.99 13.8069L17.9888 13.8569ZM18.3638 14.2506V13.2506L18.3625 13.2506L18.3638 14.2506ZM22.5 14.2506L22.5015 13.2506H22.5V14.2506ZM23.2313 13.6722L24.2047 13.9009L24.207 13.8915L24.209 13.8821L23.2313 13.6722ZM23.0784 13.0216L23.8605 12.3983L23.5602 12.0216H23.0784V13.0216ZM14.73 17.0697L14.122 16.2758L11.7796 18.0697H14.73V17.0697ZM11.9939 8.99705V9.99705V8.99705ZM9.25782 17.0697L9.65539 17.9873L11.2171 17.3106L9.86584 16.2758L9.25782 17.0697ZM6.10032 19.8756L5.23582 19.373L5.2343 19.3756L6.10032 19.8756ZM6.75001 21.0006V20.0006H6.74979L6.75001 21.0006ZM17.25 21.0006L17.2502 20.0006H17.25V21.0006ZM17.8997 19.8756L18.7657 19.3756L18.7639 19.3724L17.8997 19.8756ZM14.7366 17.0697L15.1331 16.1517L14.9433 16.0697H14.7366V17.0697ZM5.01251 13.9069C5.00827 13.8222 5.0213 13.7376 5.05081 13.6581L6.92576 14.3542C6.99067 14.1794 7.01933 13.9932 7.01001 13.8069L5.01251 13.9069ZM5.05081 13.6581C5.08031 13.5786 5.12568 13.506 5.18414 13.4446L6.63242 14.8239C6.76104 14.6889 6.86084 14.5291 6.92576 14.3542L5.05081 13.6581ZM5.18414 13.4446C5.24261 13.3832 5.31295 13.3344 5.39089 13.301L6.17758 15.1398C6.34904 15.0664 6.5038 14.959 6.63242 14.8239L5.18414 13.4446ZM5.39089 13.301C5.46883 13.2677 5.55274 13.2505 5.63751 13.2506L5.63501 15.2506C5.82151 15.2509 6.00611 15.2132 6.17758 15.1398L5.39089 13.301ZM5.63626 13.2506H1.50001V15.2506H5.63626V13.2506ZM1.4985 13.2506C1.55492 13.2505 1.60972 13.2696 1.65397 13.3046L0.413185 14.8731C0.72297 15.1182 1.10654 15.2512 1.50152 15.2506L1.4985 13.2506ZM1.65397 13.3046C1.69823 13.3396 1.72934 13.3885 1.74225 13.4434L-0.204725 13.9009C-0.114373 14.2855 0.103401 14.6281 0.413185 14.8731L1.65397 13.3046ZM1.74667 13.4631C1.75336 13.4944 1.75305 13.5268 1.74576 13.558L-0.201732 13.1027C-0.261527 13.3585 -0.264058 13.6244 -0.209146 13.8812L1.74667 13.4631ZM1.74576 13.558C1.73848 13.5891 1.7244 13.6183 1.70453 13.6434L0.136741 12.4016C-0.0263582 12.6075 -0.141938 12.8469 -0.201732 13.1027L1.74576 13.558ZM1.71908 13.6246C2.27666 12.8851 3.01646 12.3029 3.86626 11.9348L3.07126 10.0996C1.9041 10.6052 0.888004 11.4048 0.122191 12.4204L1.71908 13.6246ZM4.14251 10.2782C3.81782 9.9822 3.56879 9.61267 3.41629 9.2006L1.54063 9.89479C1.80405 10.6065 2.23419 11.2448 2.79501 11.7562L4.14251 10.2782ZM3.41629 9.2006C3.26378 8.78853 3.21223 8.34592 3.26596 7.90983L1.28096 7.66528C1.18816 8.41852 1.2772 9.18304 1.54063 9.89479L3.41629 9.2006ZM3.26596 7.90983C3.31968 7.47374 3.47712 7.05688 3.72509 6.69415L2.07401 5.56546C1.6457 6.19199 1.37376 6.91203 1.28096 7.66528L3.26596 7.90983ZM3.72509 6.69415C3.97305 6.33142 4.30432 6.03338 4.69115 5.82501L3.74267 4.06422C3.0745 4.42414 2.50231 4.93893 2.07401 5.56546L3.72509 6.69415ZM4.69115 5.82501C5.07799 5.61663 5.50912 5.50398 5.94844 5.49649L5.91434 3.49678C5.15552 3.50972 4.41084 3.7043 3.74267 4.06422L4.69115 5.82501ZM5.94844 5.49649C6.38776 5.489 6.82248 5.58689 7.21619 5.78196L8.1041 3.98986C7.42405 3.65292 6.67317 3.48385 5.91434 3.49678L5.94844 5.49649ZM7.21619 5.78196C7.6099 5.97702 7.95114 6.26359 8.21133 6.61766L9.82297 5.43334C9.37356 4.82177 8.78415 4.32679 8.1041 3.98986L7.21619 5.78196ZM8.21133 6.61766C8.47151 6.97172 8.64307 7.38298 8.71163 7.81698L10.6871 7.5049C10.5687 6.75526 10.2724 6.04491 9.82297 5.43334L8.21133 6.61766ZM8.71069 7.81092C8.69008 7.67505 8.71442 7.53616 8.78001 7.41539L10.5376 8.36985C10.68 8.1076 10.7328 7.80601 10.6881 7.51097L8.71069 7.81092ZM8.78001 7.41539C8.84559 7.29462 8.94883 7.19858 9.07403 7.14188L9.89912 8.96376C10.171 8.84064 10.3951 8.63209 10.5376 8.36985L8.78001 7.41539ZM9.06694 7.14512C7.85352 7.70609 6.82588 8.60244 6.10527 9.7284L7.78982 10.8065C8.30476 10.0019 9.0391 9.36138 9.9062 8.96051L9.06694 7.14512ZM6.10527 9.7284C5.38466 10.8544 5.00116 12.163 5.00001 13.4998L7.00001 13.5015C7.00083 12.5462 7.27488 11.6111 7.78982 10.8065L6.10527 9.7284ZM5.00001 13.5006C5.00001 13.6126 4.99926 13.7784 5.01576 13.9517L7.00676 13.7621C7.00076 13.6991 7.00001 13.6286 7.00001 13.5006H5.00001ZM23.8725 12.4199C23.1085 11.4055 22.0946 10.6062 20.9298 10.1L20.1327 11.9343C20.9807 12.3028 21.7187 12.8847 22.275 13.6232L23.8725 12.4199ZM21.205 11.7562C21.7658 11.2448 22.196 10.6065 22.4594 9.89479L20.5837 9.2006C20.4312 9.61267 20.1822 9.9822 19.8575 10.2782L21.205 11.7562ZM22.4594 9.89479C22.7228 9.18303 22.8119 8.41852 22.7191 7.66528L20.7341 7.90983C20.7878 8.34592 20.7362 8.78854 20.5837 9.2006L22.4594 9.89479ZM22.7191 7.66528C22.6263 6.91203 22.3543 6.19199 21.926 5.56546L20.2749 6.69415C20.5229 7.05688 20.6803 7.47374 20.7341 7.90983L22.7191 7.66528ZM21.926 5.56546C21.4977 4.93893 20.9255 4.42414 20.2573 4.06422L19.3089 5.82501C19.6957 6.03338 20.027 6.33142 20.2749 6.69415L21.926 5.56546ZM20.2573 4.06422C19.5892 3.7043 18.8445 3.50972 18.0857 3.49678L18.0516 5.49649C18.4909 5.50398 18.922 5.61663 19.3089 5.82501L20.2573 4.06422ZM18.0857 3.49678C17.3268 3.48385 16.576 3.65292 15.8959 3.98986L16.7838 5.78196C17.1775 5.58689 17.6123 5.489 18.0516 5.49649L18.0857 3.49678ZM15.8959 3.98986C15.2159 4.32679 14.6265 4.82177 14.177 5.43334L15.7887 6.61766C16.0489 6.26359 16.3901 5.97702 16.7838 5.78196L15.8959 3.98986ZM14.177 5.43334C13.7276 6.04491 13.4313 6.75526 13.3129 7.5049L15.2884 7.81698C15.3569 7.38298 15.5285 6.97172 15.7887 6.61766L14.177 5.43334ZM13.3119 7.51097C13.2672 7.80602 13.32 8.10761 13.4625 8.36985L15.22 7.41539C15.2856 7.53615 15.3099 7.67504 15.2893 7.81092L13.3119 7.51097ZM13.4625 8.36985C13.6049 8.63209 13.8291 8.84064 14.1009 8.96376L14.926 7.14188C15.0512 7.19858 15.1544 7.29462 15.22 7.41539L13.4625 8.36985ZM14.0938 8.96051C14.9609 9.36138 15.6953 10.0019 16.2102 10.8065L17.8947 9.7284C17.1741 8.60244 16.1465 7.70609 14.9331 7.14512L14.0938 8.96051ZM16.2102 10.8065C16.7251 11.6111 16.9992 12.5462 17 13.5015L19 13.4998C18.9989 12.163 18.6154 10.8544 17.8947 9.7284L16.2102 10.8065ZM17 13.5006C17 13.6286 16.9993 13.6991 16.9933 13.7621L18.9843 13.9517C19.0008 13.7784 19 13.6126 19 13.5006H17ZM16.99 13.8069C16.9807 13.9932 17.0094 14.1794 17.0743 14.3542L18.9492 13.6581C18.9787 13.7376 18.9917 13.8222 18.9875 13.9069L16.99 13.8069ZM17.0743 14.3542C17.1392 14.529 17.239 14.6888 17.3676 14.8239L18.8159 13.4446C18.8743 13.506 18.9197 13.5786 18.9492 13.6581L17.0743 14.3542ZM17.3676 14.8239C17.4962 14.959 17.651 15.0664 17.8224 15.1398L18.6091 13.301C18.6871 13.3344 18.7574 13.3832 18.8159 13.4446L17.3676 14.8239ZM17.8224 15.1398C17.9939 15.2132 18.1785 15.2509 18.365 15.2506L18.3625 13.2506C18.4473 13.2505 18.5312 13.2677 18.6091 13.301L17.8224 15.1398ZM18.3638 15.2506H22.5V13.2506H18.3638V15.2506ZM22.4985 15.2506C22.8935 15.2512 23.277 15.1182 23.5868 14.8731L22.346 13.3046C22.3903 13.2696 22.4451 13.2505 22.5015 13.2506L22.4985 15.2506ZM23.5868 14.8731C23.8966 14.6281 24.1144 14.2855 24.2047 13.9009L22.2578 13.4434C22.2707 13.3885 22.3018 13.3396 22.346 13.3046L23.5868 14.8731ZM24.209 13.8821C24.2643 13.6244 24.2617 13.3576 24.2015 13.1011L22.2545 13.5584C22.247 13.5268 22.2467 13.494 22.2535 13.4623L24.209 13.8821ZM24.2015 13.1011C24.1412 12.8445 24.0248 12.6045 23.8605 12.3983L22.2964 13.6448C22.2762 13.6194 22.2619 13.5899 22.2545 13.5584L24.2015 13.1011ZM23.0784 12.0216H23.0738V14.0216H23.0784V12.0216ZM15.338 17.8636C16.2507 17.1646 16.9215 16.1972 17.256 15.0973L15.3425 14.5154C15.1296 15.2153 14.7028 15.831 14.122 16.2758L15.338 17.8636ZM17.256 15.0973C17.5905 13.9974 17.5719 12.8204 17.2029 11.7316L15.3087 12.3736C15.5435 13.0664 15.5554 13.8155 15.3425 14.5154L17.256 15.0973ZM17.2029 11.7316C16.8338 10.6428 16.1329 9.69699 15.1986 9.02714L14.0333 10.6526C14.6278 11.0788 15.0739 11.6807 15.3087 12.3736L17.2029 11.7316ZM15.1986 9.02714C14.2643 8.35729 13.1435 7.99705 11.9939 7.99705V9.99705C12.7255 9.99705 13.4387 10.2263 14.0333 10.6526L15.1986 9.02714ZM11.9939 7.99705C10.8443 7.99705 9.72356 8.35729 8.78925 9.02714L9.95458 10.6526C10.5491 10.2263 11.2623 9.99705 11.9939 9.99705V7.99705ZM8.78925 9.02714C7.85493 9.69699 7.154 10.6428 6.78498 11.7316L8.67914 12.3736C8.91397 11.6807 9.36002 11.0788 9.95458 10.6526L8.78925 9.02714ZM6.78498 11.7316C6.41595 12.8204 6.39737 13.9974 6.73186 15.0973L8.64534 14.5154C8.43248 13.8155 8.4443 13.0664 8.67914 12.3736L6.78498 11.7316ZM6.73186 15.0973C7.06635 16.1972 7.73709 17.1646 8.6498 17.8636L9.86584 16.2758C9.28503 15.831 8.85819 15.2153 8.64534 14.5154L6.73186 15.0973ZM8.86025 16.1521C7.33917 16.8112 6.06904 17.9399 5.23582 19.373L6.96483 20.3783C7.58336 19.3144 8.52623 18.4765 9.65539 17.9873L8.86025 16.1521ZM5.2343 19.3756C5.08069 19.6417 4.99982 19.9435 4.99984 20.2507L6.99984 20.2506C6.99984 20.2945 6.98829 20.3376 6.96635 20.3756L5.2343 19.3756ZM4.99984 20.2507C4.99986 20.558 5.08075 20.8598 5.2344 21.1258L6.96633 20.1256C6.98828 20.1636 6.99984 20.2067 6.99984 20.2506L4.99984 20.2507ZM5.2344 21.1258C5.38804 21.3918 5.60901 21.6128 5.8751 21.7663L6.8748 20.0341C6.91282 20.056 6.94439 20.0876 6.96633 20.1256L5.2344 21.1258ZM5.8751 21.7663C6.14119 21.9199 6.44301 22.0007 6.75023 22.0006L6.74979 20.0006C6.79367 20.0006 6.83679 20.0122 6.8748 20.0341L5.8751 21.7663ZM6.75001 22.0006H17.25V20.0006H6.75001V22.0006ZM17.2498 22.0006C17.557 22.0007 17.8588 21.9199 18.1249 21.7663L17.1252 20.0341C17.1632 20.0122 17.2063 20.0006 17.2502 20.0006L17.2498 22.0006ZM18.1249 21.7663C18.391 21.6128 18.612 21.3918 18.7656 21.1258L17.0337 20.1256C17.0556 20.0876 17.0872 20.056 17.1252 20.0341L18.1249 21.7663ZM18.7656 21.1258C18.9193 20.8598 19.0002 20.558 19.0002 20.2507L17.0002 20.2506C17.0002 20.2067 17.0117 20.1636 17.0337 20.1256L18.7656 21.1258ZM19.0002 20.2507C19.0002 19.9435 18.9193 19.6417 18.7657 19.3756L17.0337 20.3756C17.0117 20.3376 17.0002 20.2945 17.0002 20.2506L19.0002 20.2507ZM18.7639 19.3724C17.9289 17.9384 16.6565 16.8097 15.1331 16.1517L14.34 17.9877C15.471 18.4762 16.4156 19.3142 17.0355 20.3788L18.7639 19.3724ZM14.7366 16.0697H14.73V18.0697H14.7366V16.0697Z" fill="#0B53CB" mask="url(#path-1-inside-1_9441_30338)"/>
</g>
</g>
<defs>
<clipPath id="clip0_9441_30338">
<rect width="24" height="24" fill="white"/>
</clipPath>
</defs>
</svg>
