<svg width="24" height="24" viewBox="0 0 24 24" fill="none" xmlns="http://www.w3.org/2000/svg">
<g id="Icons" clip-path="url(#clip0_9441_55396)">
<path id="Vector" d="M5.25 7.25H20.25C20.5152 7.25 20.7696 7.35536 20.9571 7.54289C21.1446 7.73043 21.25 7.98478 21.25 8.25V18.75C21.25 19.0152 21.1446 19.2696 20.9571 19.4571C20.7696 19.6446 20.5152 19.75 20.25 19.75H5.25C4.78587 19.75 4.34075 19.5656 4.01256 19.2374C3.68437 18.9092 3.5 18.4641 3.5 18V6C3.5 5.53587 3.68437 5.09075 4.01256 4.76256C4.34075 4.43437 4.78587 4.25 5.25 4.25H18C18.0663 4.25 18.1299 4.27634 18.1768 4.32322C18.2237 4.37011 18.25 4.43369 18.25 4.5C18.25 4.56631 18.2237 4.62989 18.1768 4.67678C18.1299 4.72366 18.0663 4.75 18 4.75H5.25C4.91848 4.75 4.60054 4.8817 4.36612 5.11612C4.1317 5.35054 4 5.66848 4 6C4 6.33152 4.1317 6.64946 4.36612 6.88388C4.60054 7.1183 4.91848 7.25 5.25 7.25ZM15.9722 14.4761C16.2394 14.6547 16.5536 14.75 16.875 14.75C17.306 14.75 17.7193 14.5788 18.024 14.274C18.3288 13.9693 18.5 13.556 18.5 13.125C18.5 12.8036 18.4047 12.4894 18.2261 12.2222C18.0476 11.955 17.7938 11.7467 17.4969 11.6237C17.1999 11.5007 16.8732 11.4685 16.558 11.5312C16.2428 11.5939 15.9532 11.7487 15.726 11.976C15.4987 12.2032 15.3439 12.4928 15.2812 12.808C15.2185 13.1232 15.2507 13.4499 15.3737 13.7469C15.4967 14.0438 15.705 14.2976 15.9722 14.4761Z" fill="#0B53CB" stroke="#0B53CB"/>
</g>
<defs>
<clipPath id="clip0_9441_55396">
<rect width="24" height="24" fill="white"/>
</clipPath>
</defs>
</svg>
